<svg width="137" viewBox="0 0 137 137" fill="none" xmlns="http://www.w3.org/2000/svg">
  <path d="M118.389 68.192c.407 14.907-8.836 29.704-21.968 37.279-13.181 7.528-30.209 7.787-46.322 2.62-16.156-5.12-31.355-15.713-33.983-27.524-2.534-11.81 7.454-24.885 15.642-37.739 8.181-12.947 14.513-25.72 25.293-28.946 10.78-3.226 25.957 3.05 38.554 13.719 12.547 10.622 22.469 25.684 22.784 40.59z" fill="#16697A"/>
  <path d="M61.8 86c.2-.15.05-.5.05-.75.15-.25.15-.4.2-.75h.15c.05-.5.25-1 .1-1.4.2-.45.1-.75.25-1.05-.05-.5.25-.65.1-1.1.1-.65.15-1.4 0-2.05.15-.15.1-.35.1-.5.25-.05.15-.35.1-.5.2-.35.05-.85.2-1.25-.2-.25.05-.6-.15-.9.15-.5 0-.8.15-1.2-.2-1.1.1-2.4-.2-3.55.1-.05.1-.25.05-.3.05 0 0-.1.1-.1-.15-.45 0-1.1-.25-1.4.05-.05.15-.05.1-.15-.05-.1-.15.05-.15-.05-.1-.5.25-1.1-.05-1.6.15-.15.1-.6 0-.8.1-.9.05-1.6.05-2.65 0-.4.05-.95.05-1.25-.05-.3-.15-1.15.1-1.35 0-.2-.05-.35-.1-.45.15-.1.05-.15.05-.3h.1c.05-1.4-.05-2.9 0-4.25-.05.05-.05 0-.05-.05 0-.25.1-.35 0-.55.1-.15.3-.25.4-.45-.1.05-.25.05-.35.05-.15-.35-.1-.45-.1-.9-.2-.55.25-1.2-.05-1.65.15-.2.2-.5.2-.75 0-.4.05-.8.1-1.2.1-.75.1-1.4.25-1.95-.05-.45.3-.9.3-1.3.35-.35.4-.8.8-1.1.4-.05.9-.15 1.3-.3 0 .05 0 .1.1.1.25-.15.7-.1 1.05-.3-.05-.4.75-.25 1-.5.05.05.25.05.3 0 0-.1-.25 0-.3-.15.85-.1 1.5-.05 2.25-.3.05.05 0 .05 0 .1.2-.15.3-.1.65-.1.5-.4 1.2-.3 1.9-.3.1-.25.45-.2.65-.35.2.15.3 0 .6-.05.75.2 1.45-.25 2.35-.15.1-.05.1-.15.2-.15.55 0 .75-.1 1.35 0-.05-.1.05-.1.1-.15.05.05.05.1.15.1-.05-.05.05-.05.1-.05.15.15.35-.15.5 0 0 .05-.1 0-.15.05.25-.05.3-.05.6 0 .05-.2.25-.25.4-.2.1-.1.3-.05.4-.1.5.2 1-.1 1.5 0 .1-.05.15-.1.25-.05.05 0 .05-.1.15-.1.2.05.35.05.55 0-.15-.15-.45-.15-.7-.25-.25-.1-.4-.1-.65-.2h-.35l-.15-.15c-.05.05.05.1 0 .1-1.65-.45-3.4-.2-4.85-.55-.35.1-.85-.1-1.2-.05 0-.05-.05-.05-.1-.1-1.15 0-2.45-.05-3.55-.05-2.1 0-4.15.3-6.5.3-.05.1-.15.1-.25.1-1.1.05-2.05.15-3.3.25-.95.1-1.9.25-2.9.4-.45.1-.95.1-1.4.2-.3 0-.5.15-.8.2-1.4.25-2.8.45-4 .85-.05 0-.1-.05-.15-.05-.5.15-.95.3-1.55.3-.1-.05-.2-.1-.25-.15-.1.1-.2.1-.35.1 0 .1-.05.2-.1.25-.2 0-.25.15-.4.1-.4.55 0 1.15.05 1.7 0 .3-.05.5 0 .75.1.35 0 .55.15.9-.05.45.1 1 .4 1.2.05.25.2.35.3.6.6.4 1-.1 1.35-.5.05 0 .1-.05.15-.1.2.1.45-.1.6-.2.8-.15 1.6-.65 2.5-.75.1-.1.3-.2.45-.1.3-.2.7-.2 1.1-.4.95-.1 1.75-.45 2.8-.7-.15 2-.05 3.8-.15 5.6-.05 0-.1 0-.1.05.05 0 .1 0 .1.05.1 1.65.25 3.2.3 4.65-.05.05-.1.05-.2.05-.05.1.1 0 .1.1.1 0 .1.1.15.15-.05.1-.1.05-.15.15.15-.05 0 .05.05.1-.1-.05-.1.05-.2 0 0-.1 0-.1-.05-.05 0 .05-.05.05 0 0 .1-.2-.1-.05-.1-.2.05 0 .1 0 .1-.05-.05 0-.05 0-.05-.05-.2.1-.4.2-.55.4.05 0 .05 0 .05.05.05 0 .15 0 .1.05.15.05.1-.1.25-.1-.05-.05.1-.15.1-.05 0 .1-.05.1-.1.05-.05.2-.25.2-.35.3-.05-.1.1-.05.1-.15-.1 0-.1-.05-.1-.1-.35 0-.4.35-.8.4-.25.45-.8.55-1.1.95-.5.2-.85.85-1.4 1.1 0 .45-.5.45-.55.85.05.05.05.1 0 .2.1 0 0 .1 0 .1v-.05c-.25-.05.05-.2-.1-.25-.2.2-.2.45-.55.5.05 0 .1.1 0 .1 0 0 .05 0 .05.05-.1-.05-.15.1-.25.05.05.15-.05.3-.15.2 0 .2-.15.35-.2.5 0 .05-.1.45-.3.35 0 .15.1.05.1.1-.2.15-.25.6-.5.6-.05.25-.15.3-.2.55.05.1.1.25-.1.25 0-.05.05-.15-.05-.15-.25.85-1.05 1.45-1.05 2.3-.05 0 0-.15-.1-.1-.05.15.05.15.1.25-.05.05-.1.05-.15.05 0 .1.1.05.05.2-.3.3-.05.75-.45.95 0-.05.05-.2-.05-.2-.05.05-.05.15-.05.25 0 0-.05-.05-.1-.05 0 .1-.05.25.05.25v-.1.1c-.05.05-.1.1-.1.15.05 0 .05.05.1.1-.1.1-.1.35-.2.45 0 0 0-.05-.05-.05-.1.15.05.25-.05.4-.1 0-.1-.1-.15-.15 0 .3.15.6-.15.85.05.15-.05.7-.15.95.1.1-.1.2.1.25-.05.15-.15.25-.2.45.05.05 0 .1-.05.1s-.05-.1-.15-.1c-.05.3.05.3-.1.5 0 .1.1-.1.1.05 0 .1.05.3-.05.3s.05-.25-.1-.2c-.05.6-.35 1-.2 1.6-.15.05-.1-.05-.2 0 0 .1.1.1.1.15-.25-.05-.1.35-.25.4.1 0 .1.05.1.1-.1.3-.2.65-.25.9-.05.1.1.05.05.15-.05 0-.1 0-.1.05.1.3-.25.65-.05.9-.2.05 0 .3-.2.35.15.05-.05.3 0 .4-.1 0-.05-.15-.1-.15 0 .35.2.85-.1 1.05.05 0 .1 0 .1.05-.05.4.05 1.15-.15 1.55.05-.1 0-.1-.05-.1.15.15-.15.35 0 .45 0-.05 0-.1.05-.1 0 .05 0 .1-.05.1.1.15.1.5 0 .6 0 .15.1.2.2.3-.1 0-.2-.05-.2.05.1.1 0 .4 0 .55.05 0 .15-.05.15 0-.2.05-.05.25-.05.35-.05 0-.05-.05-.1-.05.1.3-.05.65 0 1.1 0 .05-.05.05-.05.05.15.7 0 1.5.1 2.25-.05.1-.15 0-.15.1.05 0 .2-.05.15.05-.05.2 0 .35.05.7h-.1c0 .05.15.05.15.1-.05.2.1.6-.05.8.25.15 0 .65.3.8h-.1c.1.15-.05.2.1.3.05-.1-.1-.2.1-.25-.05.2.1.4-.05.45-.05-.05 0-.15-.1-.1.05.25.3.3.3.55-.05.05-.1.05-.15.05-.05.1.1.05.1.1-.25.05.05.3.1.35 0 .1-.15 0-.15.15.3.25.3.75.75 1.05-.05.3.25.2.25.45.1-.05.05-.05.15 0 .05.1.15.2.2.35-.05 0-.05-.05-.1-.05.25.25.25.5.4.75.15 0 .1-.2.2-.2.15.1.35.15.45.2 0 .1.05.15.05.25.2.05.25-.05.45 0-.05.1.05.05.1.15-.1.05-.1 0-.2 0 0 .15.2.1.2.2.15-.1.15 0 .25.05 0-.05.05 0 0 0 .15.25.5.2.5.4.1.05.1-.05.2 0 0-.1.05-.1.1-.05 0 0 0-.05 0 0 .05 0 .05-.1.1-.05.05-.1-.1-.15 0-.2.05.05.15.05.15.15.05.1.15.1.25.15-.1.1.05.15.15.05 0 .2.3.15.5.2.1.1-.05.2.15.15-.1-.1-.05-.3.05-.35.05.1.1.15.25.05.05.1-.05.15.05.2.1 0 .15-.2.15.05.15-.1.2-.05.4-.1.05-.05-.05-.1 0-.1.15.2.45-.1.65 0-.05-.1.1-.2.15-.1-.05.05-.1.05-.1.1.2 0 .25.05.35-.1.3.05.8 0 1.15-.2.3.05.55-.25.75-.4.25.05.3-.15.4-.3.7-.2 1.1-.35 1.55-.8-.2-.4.35-.5.25-.75.2 0 .25-.15.25-.35.05-.05.15-.05.2-.1 0-.3.15-.45.35-.55 0-.4.4-.6.6-.9-.15-.05-.05.1-.15.05-.05-.15 0-.25.2-.25.05-.1-.1-.15.15-.15.05-.7.5-1.35.35-1.9.2.05.15-.15.15-.3-.05 0-.15-.05-.15-.15.1-.1.2-.25.25-.5h.15c-.05-.15-.05-.1-.05-.2-.05 0-.05-.05 0-.05V86zm8.45-43.1s.05 0 0 0zm11.15.4s0 .05 0 0zM68.85 45c-.05 0 0 0 0 0zm-2.2.4c-.1.05-.2 0-.15-.1.05.05.15 0 .15.1zm-3.9 11.1c0-.05.05 0 0 0zm0 .05s.05 0 0 0zm-.9 1c0-.05.05 0 0 0zm-.2.6s0 .05 0 0zm-3.45.3v-.05h.1v.05h-.1zm-.65 1.05v-.05h.15c0-.05-.05-.1-.05-.1 0-.05.15-.1.2-.05.05 0 0-.05 0-.1.1-.05.3 0 .25-.2.4-.05.45-.55.8-.5-.1.2.15.35 0 .5.45 4.35.6 8.15.7 13.1-.05.1.05.1.05.15 0 .05-.05.1-.1.15.25.2.2.5.05.7 0 .1.05-.1.15 0-.05 1.35-.15 2.1-.1 3.15 0 .3-.15.7-.05.9h-.05c0 .1.05.1.05.1-.15.15 0 .55-.15.8.3.15-.05.45-.05.75.1.05 0 .1.1.1 0 .1-.15.05-.1.2 0 .05.05.05.1 0-.1.2.05.6-.25.6 0 .1.1.1.15.15 0 .15-.2.05-.15.15 0 .05.1 0 .1.05-.25.25-.15.85-.25 1.05 0 .1.1-.05.15 0-.05.1-.15.2-.2.3 0 .2.15 0 .15.15-.05-.05-.15.05-.2.05.05.1 0 .1 0 .2s.1.05.15.1c-.2.1-.25.25-.3.45.05.05.2 0 .2.15-.3-.15-.2.15-.3.3.1.05.1-.05.2-.05 0 .25-.05.45-.1.7-.1 0-.25-.05-.3.05.05.1.2 0 .25-.05.05.2-.05.5-.15.65.05.1-.05.1-.1.15.05.05.05-.05.15 0-.1.55-.3.8-.55 1.2.15.05.1-.15.2-.15 0 .25-.15.3-.25.45 0 .05.05.05.1.05-.05.1-.1.2-.15.25.2.15-.05.35-.15.45.05.1.2 0 .15.15-.05.05-.1.05-.15 0 0 .1 0 .15-.05.15.05.1.15.05.15.1-.05.35-.15.7-.45.8 0 .05.1.05.1.1-.15 0-.15.15-.15.2 0 .05-.1.05-.15.2-.15.25-.3.7-.55.7-.05.25-.2.4-.4.5 0 .1.15.05.1.2-.2.15-.3.25-.6.3-.05.1.1.05.1.15-.05 0-.1 0-.1-.05-.05.25-.3.4-.35.7-.15.05-.1-.1-.2-.05-.1.15-.05.3-.15.4-.85-.35-1.55-.85-2-1.55-.05-.05-.15-.05-.2-.1.05-.3-.4-.35-.4-.7-.15-.1-.1-.35-.25-.4-.15-.45-.3-.9-.45-1.2 0-.7-.25-.95-.25-1.7-.15-.2-.3-.6-.15-.9 0-.1-.15-.2-.05-.35-.05 0-.05-.1-.1-.15 0-1.4-.1-2.75.1-3.9-.05-.05-.1-.05-.1-.1.15-.9 0-1.45.25-2.25-.15-.15.15-.4-.05-.6.15-.25.2-.7.2-1.05.25-.5 0-1.1.35-1.55 0-.05 0-.1-.05-.1.2-.8.45-1.45.55-2.15.05 0 .05-.05.1-.05-.05-.1 0-.2-.1-.25.2-.5.4-.9.5-1.5.15 0 .05-.2.15-.2-.05-.4.3-.55.2-.85.05 0 .05-.05.1-.05 0-.05 0-.1-.05-.1.15-.15.2-.45.35-.6 0-.05-.05-.05-.1-.05.25-.4.45-.7.6-1.3.05 0 .05-.1.15-.05-.05-.4.3-.6.2-.9.3-.4.6-.85.8-1.35.1-.05.15-.1.25-.15-.1-.05-.05-.15 0-.25 0-.05-.1 0-.1-.1.35-.25.4-.95.65-1.15 0-.05-.05-.05-.05-.05-.1-.05-.1.1-.1.2-.15.1-.3.35-.25.5-.45.35-.4.95-.85 1.2.1.2-.25.25-.1.45h-.1c-.15.35-.35.6-.4 1-.2.05-.15.4-.3.45-.1.3-.2.55-.35.7v.25c-.25.1-.2.5-.35.65-.1-.1.1-.25 0-.35.55-1.25 1.15-2.65 1.9-3.75-.1-.4.3-.45.2-.7.2-.15.3-.45.45-.65-.1 0-.1.05-.25.05.15.15-.2.15-.05.3 0 .1-.1 0-.15.05.05-.4.4-.5.5-.9.05 0 .1-.05.2-.05-.1-.15 0-.25.15-.25-.15-.1 0-.1-.05-.3.1-.05.1 0 .2 0 0-.15-.15-.1-.3-.1-.15.05-.05.35-.3.35.05-.2.1-.4.25-.5 0-.1-.1-.05-.1-.15.25 0 .25-.25.35-.35 0-.05-.15.05-.15.15-.15-.2.2-.3.2-.4.1-.05.05.1.1.15.1-.05.2-.05.2-.2-.15 0-.15.1-.25 0 0-.1.1-.05.2-.1 0-.25.4-.3.3-.55.1 0 .15-.05.3-.1-.05-.2.05-.3.25-.35-.1-.15 0-.15.05-.3.4.05.35-.4.65-.55-.45.3-1 .8-1.55 1.1 0-.2.3-.15.2-.3.3-.05.4-.3.6-.5zm4.4-.8c-.05-.05-.05-.05-.05-.1.05 0 .05 0 .05.1zm0 .05s.05.05 0 0zm-3.95.2h-.05.05zm-.25.05s-.05.05-.05 0 .05-.05.05 0zm4.25.15c0-.1.15 0 0 0 0 .05-.05 0 0 0zm-4.65.15h-.05.05zm4.5 0c-.05 0 0 .05 0 0zm-4.65.1s.05.05 0 0zm4.65.1s.05 0 0 0zm-3.9 0s0 .05 0 0zm4 0s.05.05 0 0zm-4.6.6c0-.05 0-.1.05-.1.1 0 .05.1-.05.1 0 .05-.05 0 0 0zm4.5-.1s.05.05 0 0zm.3.1h-.1.1zm-5.1.15v-.05h.1c0 .05-.05.05-.1.05zm5.15-.05c-.05.1-.05 0-.1 0h.1zm-5.4.6c-.05 0 0 .05 0 0zm5.35.15c.05-.15.05.15 0 0zm-7.3.1c-.05-.05 0 0 0 0zm.7.35c-.05-.05 0 0 0 0zm6.85 0c-.05-.05 0 0 0 0zm-6.95 0s.05.05 0 0zm-.1.15v-.05h.1c0 .05-.05.05-.05.1-.05 0-.05 0-.05-.05zm6.95-.05c-.05 0 0 .05 0 0zm-6.05.1c-.05.05-.1.05-.1 0s.05.05.1 0zm-.95.15c0 .1-.15.1-.1 0 0-.05.05 0 .1 0zm.7 0c.15-.05-.05.15 0 0zm-1.15.1c.05.05.1.05.1 0 .05 0 .05.05.1.05v.1c-.15 0-.2 0-.2-.15zm.85 1.05c-.05 0-.05-.05-.1-.05-.1.05-.2.4-.4.3.1-.05.15-.15.2-.25-.05-.1 0-.1-.05-.25h.1c.05 0 .05-.05.05-.1h-.15c0-.1.15-.15.25-.1.05-.05 0-.1 0-.25.1 0 .1-.2.3-.15-.05-.1-.05-.2.1-.2-.1.1 0 .15 0 .3-.1-.2-.2.1-.1.2-.05.05-.05.1-.05.2-.05 0-.1-.05-.1-.1-.1 0-.1.25 0 .2 0 .1-.05.15-.05.25 0 0 .05.05 0 .05 0 .05 0 .1-.05.05v-.05h.05v-.05zm6.05-.95c0-.05.15-.1.15-.05 0 .15-.05 0-.15.05zm-6.7.05c.05-.15.05.15 0 0zm6.8.1c0-.05.05 0 0 0 0 .05-.05.05 0 0zm-7.85.1v-.05h.1c0 .05-.05.05-.1.05zm7.85 0s.05.05 0 0zm0 .1c-.05 0 0 .05 0 0zm-8.15.15c0-.15.15 0 .1-.15.1 0 .1.1.15.1 0 .1-.15.05-.25.05zm8.05.1c0-.05.05-.1.1-.1 0 .05-.05.1-.1.1 0 .05-.05.05.05.05 0 .05-.05.05-.1.05 0-.05 0-.15.05-.1zm-7.6.35c.05-.1.1-.15.2-.15 0 .1-.05.15-.2.15zm7.75-.1c.05-.1.05.15 0 0zm-8.15.2c-.05-.1.05-.2.15-.1-.05.05-.05.15-.15.1zm8.3 0c-.05 0 0 0 0 0zm-.1.1s.05 0 0 0zm.05.1c.05-.15.05.15 0 0zm-7 .05c.05.15-.2.15-.15 0H55zm-.2.35v-.1h.15c-.05.1.05.1 0 .2-.1-.1 0 .1-.05.15-.1.05-.05-.1-.15-.1-.05.15.15.15.05.2-.1.05-.1 0-.15 0 0 .05.05.1.05.25-.1 0-.05.1-.15.05.05-.25-.1-.55.25-.65zm.15-.05s.05 0 0 0zm6.95.3c-.15 0 0-.1-.05-.25.1.05 0 .2.05.25zm-8.55.05c0-.05.15 0 .15-.1.05 0 0 .05.05.1h-.2zm-.05.1c.1 0 .1-.05.15-.05.05.15-.1.1-.05.2-.05 0-.1-.05-.1-.15zm1.95.2c-.1.05-.1-.05-.1-.15.05.05.15.05.1.15zm.15-.1c0 .05-.1.05-.1.05 0-.05.05-.05.1-.05zm-1.05.4c.05-.15-.1-.1-.05-.3h.1c.05.1.15.3-.05.3zm-1.25-.1v-.1h.1c0 .05-.05.05-.05.1h-.05zm8.8-.05s0 .05 0 0zm-.05.1s.05.05 0 0zM53 64.7c-.05 0 0-.1-.05-.15h.15c.05.1-.1.05-.1.15zm-.05.05c-.05.05-.05 0-.1 0 0-.05.1-.05.1 0zm1.05.15c0-.1.1-.1.1-.2.15 0 .05.3-.1.2zm.7-.1v-.05h.1v.05h-.1zm-1.9.1c-.15.05 0-.1 0 0 .05.05.05.05.05.1h-.1c0-.05.05-.05.05-.1zm.95.5c0-.15 0-.3.15-.4.05.15-.05.35-.15.4 0 .05 0 .1-.1.05v-.05h.1zm.85-.15c-.2 0-.05-.1-.05-.25.15.1.05.1.05.25zm-.95.1c-.05-.05 0 0 0 0zm.45.1c-.1 0-.05-.1-.1-.1 0-.05.1 0 .1.1zm-.6.35c-.15-.05.1-.2 0-.2 0-.05.05-.05.1-.05 0 .15-.05.15-.1.25zm8.05-.1c0-.05 0 0 0 0zm-8.25.7c.05-.25.05-.25 0-.45.1 0 .2.05.35.1 0 .2-.1.25-.1.45-.1 0-.1-.15-.25-.1zm6.55 0c-.05 0 0 .05 0 0zm-6.25.35c.1 0 .05-.15.15-.1-.1.1 0 .15.05.25-.15 0-.1.2-.25.2.1.15 0 .35-.2.4.05.1 0 .15 0 .3-.1 0-.1-.05-.15-.1.15-.2.2-.55.35-.8 0-.05-.1-.05-.05-.15-.05.05-.1 0-.1.05-.1-.05 0-.25.15-.15-.05.05.05.05.05.1zm5.9-.1s.05.05 0 0zm-6.45.2c0 .05-.05.05-.1.05 0 0 .05 0 .1-.05zm1.25.15c.05-.1.05.15 0 0zm-2.6.1c.1.15-.15.15 0 0zm1.6.1c-.05.05-.05 0-.1 0 0-.05.1-.05.1 0zm0 .05c.05-.15.05.15 0 0zm-1.9.2c.05-.1.1.05.15-.05.1.05-.1.1-.05.2-.05 0-.1-.05-.1-.15zm-.05.35c0-.05.05-.05 0 0 0 .05-.05.05 0 .1-.1 0-.05-.1 0-.1zm1.85.4c-.1-.1-.15-.15-.1-.3.1.1.15.2.1.3zm-2.7.5s.05 0 0 0zm.35.1c0-.1.05-.15.15-.15-.1.05 0 .2-.15.15zm2.25.7c0-.2.1-.55.2-.65.1-.05.1 0 .15 0-.15.2-.1.5-.35.65zm-2.35-.45c0-.1.05-.15.15-.15.05.1-.05.1-.05.2-.1.05 0-.1-.1-.05zm2.4.6c-.05 0-.15-.05-.05-.1.05 0 .05.05.05.1zm-.45.85c.05-.35.2-.5.25-.7 0 .2.05.6-.2.7h-.05zm-2.3-.55c0-.1.05-.15.1-.15v.15h-.1zm-.35-.05c0-.05.05 0 0 0zm.1.45c.2.15.1-.15.15-.25.05 0 .1.05.15.05-.05.3-.25.5-.3.85-.15 0-.15-.2-.1-.35.1 0 .1.05.15.05.05-.15-.15-.2-.05-.35zm-.4 0c.05-.15.05.15 0 0zm2.8.7c-.05-.15.05-.4.15-.55.05 0 0 .1.05.1-.1.45-.15.75-.4 1.05 0-.15.05-.5.2-.6zm-2.95.1V71c.15 0 .15.1.15.2-.05-.05-.1-.05-.15-.05zm.35.2c-.1-.05.15-.2 0-.35.2 0 .1.35 0 .35zm-.3-.05v-.1h.1v.1h-.1c0 .1.1.1.05.15-.1 0-.1-.05-.15-.05 0-.05 0-.15.1-.1zm.15.2v-.05c.1 0 .15.05.15.15-.1 0-.2 0-.15-.1zm0 .4c0-.1-.1-.2 0-.25.15-.05.1.3 0 .25zm2.4 0c0-.1.1-.05.1-.15.05.1.1.3-.05.35-.1-.1.05-.15-.05-.2zm10.7 0s.05.05 0 0zm-13.3.15c.05-.1.1-.15.2-.1 0 .05-.05.1-.05.15-.05 0-.05-.05-.15-.05zm.1.1c.05-.1.1.1 0 0-.05.1-.15 0 0 0zm2.2 1.25c0-.45.15-.85.3-1.3.1.1.05.2.05.25-.1.45-.35 1.05-.4 1.45-.15-.05-.05-.25.05-.4zm-2.45-.95c0-.15.15-.15.25-.1-.05.1-.2.15-.25.1zm-.7 2.15c.1.05-.15.2-.1.05l.1-.05zm-.3.95c.1-.1-.1.1 0 0zM59.7 76.7s0 .05 0 0zm.05.2c-.1.05-.1-.05-.1-.1.05.05.1.05.1.1zM47.7 80.7s.05 0 0 0zm11.45 1.1c-.05.05-.05 0-.1 0h.1zm-.2.35c.05 0 .1-.05.15-.05v.1c-.05 0-.2.05-.15-.05zm-11.15 1.1c-.05 0-.05-.05 0 0 .05 0 0 .05 0 0zm10.55 1.95c.15.1-.15.1 0 0zm-.25 1.55c0 .05-.05.05-.1.05 0-.05.05-.05.1-.05zm-10.15 1.3c.05-.15.05.15 0 0zm.35 1.7c0-.1 0 .15 0 0zM57.8 91c-.05-.05-.05-.1-.05-.15.1 0 .1.05.2.05-.05.05-.05.1-.15.1zm-7.15.95v-.05h.05v.05h-.05zm-.5.45c.05-.15.05.15 0 0zm4.3.7c0-.05.1 0 .1-.1.1 0 .05.1.15.1 0 .1-.2.05-.25 0zm-2.8-.05c0 .05-.05.05-.1.05 0-.05.05-.05.1-.05zm.05.25c-.05-.1.15-.1 0-.15 0-.05.15 0 .2-.05 0 .15.05.2.2.15-.05.15-.25 0-.4.05zm-.25-.05c.05-.05.05-.05.1-.05 0 .05 0 .05-.1.05zm3.4.05s.05 0 0 0zm-1.5.2l-.05-.05c0-.05.2-.05.15.05h-.1zm2.95.05v-.1c.1-.05.1.15 0 .1zm-3.55-.05c0 .05-.2.05-.15-.05.05 0 .1.05.15.05zm-.6.05c-.05 0 0 0 0 0zm.9-.05c0 .05-.05.05-.1.05 0-.05.05-.05.1-.05zm-1.2.1c0-.05 0 0 0 0zm4.25 0c-.05-.05 0 0 0 0zm-3.35.1v-.1h.05v.1h-.05zm.2-.05c.05-.15.05.15 0 0zm-.05.05c.15.05.3-.1.3.1-.1-.05-.25.1-.3-.1zm1.95 0c-.05 0 0 .05 0 0zm-.7.2c0 .1-.1 0-.15-.05.05-.1.15.05.15.05zm25.3-49.95c-.05 0 0 0 0 0zM69.6 45.4c0 .05-.1 0-.05.1.05 0 .15-.1.05-.1zm-.6 0c-.1.05-.25 0-.25.1.1 0 .25 0 .25-.1zm.2 0v.1h.1v-.1h-.1zm-1 .05c.05.2.35.1.45 0-.1.05-.25 0-.45 0zM58.5 58.1c0-.05.05-.05 0 0zm.25-.05c-.1 0-.1.05-.15.1.05.05.1-.1.15 0 .05 0 0-.05 0-.1zm0 .1c-.1 0 .05.15 0 0zm0 .2c-.15-.05 0 .1 0 0zm-.65.3v-.05.05zm.45.3c0-.05.05 0 0 0zm-.1.1c.15.05 0-.1 0 0zm-.05.05s.05 0 .05-.05c-.05 0-.05.05-.05.05zm0 0c0 .05-.05.05 0 0zm-.85.4c.05 0 .05.1 0 0zm.45.3c-.05 0 0 .05 0 0zm-.25.15c.05 0 .05.05.1 0 0-.05-.1-.05-.1 0zm-.2.15c-.15.1.15.1 0 0zm-.5.7s.05.05 0 0zm-.25.35c.1 0 .1-.15.2-.25-.15.05-.15.15-.2.25zm-.2.2c-.1 0 0 .05 0 0zm-2.45.75v-.05.05zm-.65.25c-.05 0-.05-.05-.05-.05-.05.05-.1.15 0 .15h.05v-.1zm3.1.45c0-.05.05 0 .05-.05-.05 0-.05 0-.05.05zm0 0c-.15.05-.35.1-.35.2-.15.05-.25.05-.25.15.25.1.4-.2.6-.35zm-3.65.45c0 .05-.05 0 0 0zm3.4.1c-.05 0 0 0 0 0zM63 64.4c0-.15 0 .15 0 0zm.1 1.3c-.05 0 0 .05 0 0zm0 .1c-.05 0 0 .05 0 0zm-9.5.95c-.05 0 0 .05 0 0zm-3.2 1.35c-.05 0-.05-.05 0 0zm0 0v.05h.05c0-.05-.05-.05-.05-.05zm-.05.25c0 .05 0 .2.05.1 0-.05-.05-.2-.05-.1zm12.4.6c-.05 0 0 0 0 0zm-13 .7s0 .05 0 0zm-.35 1.9c-.05 0 0-.05 0 0zm13.9 0c0-.05.05-.05.05-.05 0 .05-.05 0-.05.05zm-14 .35h.05-.05zm0 .35l-.1-.1c-.05.1.05.1.1.1zm10.3.4c-.2.2.15-.05 0-.05v.05zm3.75.35c0 .1-.1.1-.05.2.1.05.1-.2.05-.2zm-3.75.3c0-.05.05 0 0 0zm-10.95 0c-.05 0-.05 0-.1.05.05 0 .1-.05.1-.05zm10.95 0v.15c.1.05.1-.15 0-.15zm3.7.05s.05 0 .05-.05c0 0-.05 0-.05.05zm-3.7 1s-.05 0-.05.05c.05.1.1-.05.05-.05zm-11.4.7c-.05 0 0 .05 0 0zm-.15.55c-.05 0 0 0 0 0zm15.2.15c0 .25.1-.15 0 0zm-15.05.05c.05.15.05-.15 0 0zm-.15.3c-.1-.15-.05.1 0 0zm15.2 0h.05c0-.05-.05-.05-.05 0zm-15.2.4c.05.15.05-.15 0 0zm-.25 1.2s0 .05 0 0zm-.25 1.45c0 .05 0 .15.05.1 0-.05 0-.1-.05-.1zm.15 1.05s.05.05 0 0zm-.15.1c0-.05 0 0 0 0zm.05.7c0-.1-.1-.1-.1 0 .05-.05.05 0 .1 0zm0 0c-.15.1.1.05 0 0zm11.4.9s.05 0 0 0zm0 0c-.2 0-.05.15 0 0zm-11.5.25c0-.05.05 0 0 0zm0 .25c-.05.05 0 .05.05.1 0-.1-.05-.1-.05-.1zm.1.15c-.05 0 0 .05 0 0zm-.15.3c0 .05 0 .1.05.1 0-.05.05-.05.05-.1h-.1zm11.25.3c.05-.05.2-.15.1-.2-.05.05-.15.05-.1.2zm0 0c-.05 0 0 .05 0 0zm-.05.15v.05c.05 0 .2.05.15-.05h-.15zm-11.05.4c-.05 0-.05-.05 0 0zm11.05.4c0-.15-.05-.2 0-.3-.15 0-.15.25 0 .3zm-.1.25c-.1 0-.15 0-.15.1.05 0 .15 0 .15-.1zm-.2.6c.05.1.05-.15 0 0zm-10.85.8c0-.1 0 .15 0 0zm14.15.9c.05 0 .05 0 .05-.05 0 0-.05 0-.05.05zm-3.8.3c0 .05 0 .05-.05.05v.05h.1v-.1h-.05zm-10.15.6c-.05 0 0 .05 0 0zm.25.95c-.05 0 0-.05 0 0zm1.25 3.25s.05 0 .05-.05c0 .05-.05.05-.05.05zm.75 1c-.05.1.15.15.1.05-.05 0-.05-.05-.1-.05zm2.45.8c-.15 0 0 .15 0 0zm-.15.05c.05 0 .05.05 0 0zm-.1.05c0 .05.05.05 0 .05v-.05zm.1.05c-.05-.05 0 0 0 0zm-.8 0c-.05 0 0 .05 0 0zm.6 0c-.05 0-.05 0-.05.05.05 0 .1 0 .15-.05h-.1zm1.45.3c.05 0 .05.05.05 0s-.05-.05-.05 0zm-.05.1c.05 0 .05.05 0 0zm.1.05c-.05 0 0 .05 0 0z" fill="#fff"/>
  <path d="M93.561 38.55c.05 0 .05 0 .05-.05h-.15c-.5-.7-1.25-1.15-2.1-1.5-.1.1-.3.1-.4.15-.3-.15-.5-.15-.8-.3-.1 0-.15.05-.3.05-.2.15-.45.2-.75.25-.3.2-.5.5-.8.7-.55 1.3-.95 2.75-1.55 4.05-.15.65-.3 1.3-.65 1.95v.2c-.2 0-.15.2-.3.35.2.25-.1.4-.2.5 0 .05.05.05.1.05 0-.05.1-.15.1-.1 0 .05-.05.1-.1.1.1.1-.05.05-.05.15.15.3-.35.3-.4.45.15.05.05.05.1.15.05 0 .05-.05.15 0 0-.05 0-.05.05-.05 0-.05 0-.1.05-.1 0 .05 0 .1-.05.1l-.05.05v.1c-.05 0-.1-.05-.15-.1h-.1V45.8c-.15 0-.05.15-.15.1 0-.05.15-.15 0-.15-.1.05-.2.3-.05.3-.05.05-.05.1-.15 0-.05.05-.05.15-.1.2.05.05.1-.05.1 0-.15.1-.2.35-.35.5.1.05.15-.1.15 0 .05.1-.05.1-.1.15-.05 0-.05-.05-.05-.1h-.05c-.05.1-.1.2-.2.25.2.05-.15.05-.1.15v.05c0 .05.05.05.05.05.05-.05.05-.1.1-.1 0 .1.15.05.1.2-.05.1-.05.2-.25.2.1.25-.05.5-.25.65 0 .1.05.1 0 .2-.25.2-.2.8-.7.8 0-.1.15-.15 0-.15-.1.1-.15.25-.2.4.1 0 .1.1.2.1 0-.15.05-.3.15-.3 0 0 .05 0 .05.05-.1.1-.1.35-.25.4.1.05.15.05.2 0 .05-.1.05-.25.1-.3.1.05 0 .25-.1.3 0 .15-.05.3-.2.3.05-.05.1-.1.1-.2-.15 0-.15.2-.25.35.1-.05.1.05.1.1 0 .15-.15.2-.2.3-.05 0-.05-.05-.1-.05-.05.25-.1.5-.4.6.05-.15-.15-.3.05-.4-.1.05-.1-.05-.15-.05 0 .15.05.4-.1.45-.05 0 0-.1-.05-.1-.05.1-.05.25-.15.35.2.15-.15.35-.05.5-.2.05-.15.25-.2.35-.1 0-.15 0-.15.05.05.1 0 .25-.05.3-.05.05-.1.05-.1-.05-.15.15-.25.25-.1.3-.05 0 0 .15-.1.15 0-.05-.1-.05-.1 0 .05 0 .05.05.1.05-.3.1-.3.55-.5.8 0 .1.1.05.1.15-.05.1-.05.25-.2.25 0-.15.15-.25.05-.35-.05.1-.05.25-.1.4.1 0 .1.05.1.15-.05 0 0 .05-.05.05s-.1-.05-.15-.05c.05.05-.1.15 0 .2 0-.05.05-.1.1-.1 0 .15.05.2.1.3-.05.2-.1.35-.2.5-.05 0-.05-.1-.15-.1 0 .15-.05.25-.05.35.05 0 .1 0 .1.05-.1 0-.15.1-.25.05-.05.1.15.15 0 .25.15.25-.25.75-.4 1 0-.05-.05-.1-.05-.15-.15 0 .05.45-.2.3.1.25-.05.25-.05.45.1 0-.05.15 0 0h-.05c-.15.1-.05.45-.25.5.05.1-.05.3-.2.35v-.1c-.2.15-.1.45-.3.7.05-.05 0-.1 0-.1-.1.35-.05.65-.3.85.05 0 .05.05 0 0-.35.5-.35 1.1-.7 1.7 0 .1.05.05.05.15-.25.4-.6.95-.55 1.6-.35.6-.55 1.35-1.05 2 .05 0 .05-.05.05-.1-.1.05-.2.15-.15.3.15.05-.05-.15.1-.15.05.05.1.05.1.1-.15.1-.15.35-.35.45 0-.1.1-.1.1-.25-.15.05-.1.2-.2.3.05.15.15-.1.15 0 0 .05.05.05.05.1-.25.15-.2.55-.55.6 0 .25-.2.7-.35 1.05-.1.15-.25.4-.35.4-.05.25-.2.65-.45.75-.15.2-.2.5-.45.6-.05.55-.4 1-.7 1.2 0-.5-.15-1.4 0-2-.05-2.05.15-3.55.45-5.75.05-.1-.05-.1 0-.2.2-1.35.5-2.95.65-4.3.1-.35.2-.55.2-.95.15-.35.2-.65.2-1 .2-.7.35-1.55.45-2.2.05 0 0-.1.1-.1.05-.65.2-1.2.3-1.75.05-.3.25-.7.3-1.05.05-.3 0-.7.15-.9v-.2c.15-.1.15-.3.2-.5 0-.8.25-1.1.35-1.75.35-.65.25-1.4.65-1.9v-.3c.3-.55.75-.9 1.2-1.25.05-.15.2-.25.25-.4-.25-.8-1-1.05-1.65-1.4-.1 0-.15.05-.2.1-.55 0-.95-.4-1.4-.45-.55-.1-1 .2-1.55.25-.6.25-.65.95-.9 1.5-.3 1.65-.85 3.05-1.05 4.8-.25.55-.3 1.1-.4 1.85-.65 3.05-1.3 6.55-1.7 9.85-.25 1.45-.4 3.3-.5 4.85-.05.4-.15.75-.05 1.1-.05 0-.05 0-.05.05.1.2 0 .65.15.85-.2.25-.05.6.1.7 0 .3-.05.5.05.75-.05.1-.15.2-.2.3.05.1.1.15.1.2-.05.1-.15.25-.1.25 0-.05.05 0 .05.05-.05 0-.05 0-.05.05.15.05.1.3.15.5-.4.35.2 1.05.05 1.45.05.05.1-.1.15 0-.05.05-.1.05-.1.1.05.15.3.2.25.4 0 .1.15-.1.1.05.1 0 .15.15 0 .1.15.4.5.55.6 1 .4.3.85.55 1.15.9v.05c1.25.5 2.25 0 3.2-.35.1-.1.1-.15.1-.2.35-.15.6-.4.85-.65.5-.25.75-.8 1.2-1.15.2-.45.45-.65.6-1.15.35-.6.6-1.35.95-1.95.05-.05 0-.1 0-.15.2-.25.45-.7.5-1.2h.1c.1-.45.35-.8.45-1.1v-.15c.2-.15.15-.4.3-.55-.15-.1.1-.2 0-.3.3-.2.55-1 .55-1.4.15 0 .1-.15.2-.2-.1 0-.1-.05-.1-.1.05.05.05 0 .1 0 0-.35.45-.8.4-1.25.1-.05.2-.25.15-.4.2-.25.2-.65.45-.95-.05 0-.05-.05-.1-.1.2 0 .15-.25.25-.35.1.2-.05.4-.1.55.05.05.1-.05.1.05-.1.1-.05.2-.15.35.05 0 .1 0 .1.05-.15.1-.2.3-.35.4.05.1.1 0 .15.05-.15.3-.1.8-.3 1.15.05 0 .1-.05.1 0-.15.15.05.75-.35.9.1 0 0 .05 0 .1.05 0 .15 0 .15.05.05.1-.1.05-.1.1.05 0 .1.05.1.1-.1 0-.25.1-.3.25.05 0 .15-.05.15.05-.2-.05-.15 0-.2.1.1 0 .3-.1.3-.05-.05.1-.05.25-.2.2-.05.15.15-.05.15.05 0 .15-.1.25 0 .35-.15-.05-.1.15-.25.15 0 .1.05.1.05.15-.05 0-.15 0-.2.05.05 0 .15 0 .15.05-.05.1-.05.35-.1.6.05-.05.05-.15.15-.2v.25c-.15 0-.2.1-.25.2.15.05-.25.3-.1.45 0-.05.05-.1.05-.05 0 .1-.05.1-.05.15.1-.1.2-.25.45-.3-.1.05 0 .25-.1.25-.05 0-.15.15-.1 0-.15.05-.1.35-.1.55l-.15.15c0 .05.05.15 0 .25 0 .1-.15.2-.15.3 0 .05.05.1.05.15-.1.15-.3.2-.3.35.05.1.15-.15.25 0-.05.1-.2.3 0 .35.05-.1.05-.25.2-.25 0 .1-.05.15-.05.25-.2.05-.3.2-.35.4.1 0 .15-.1.2 0-.05.1 0 .1.05.15-.25.1-.2.35-.4.4.05.35-.15.35-.25.55.1.05.05-.1.15-.05.05.2-.1.2-.15.3.05.05.1-.05.1 0-.05.15-.1.25-.2.3-.2-.05.15-.2-.05-.2-.05.1-.1.35.05.4 0 .15-.2.1-.2.2.25-.1.35-.25.6-.35-.1.6-.6.6-.6 1.25.15-.05.2-.2.35-.25-.05.5-.15.9-.45 1.3.3-.05.4-.05.65-.15 0-.15.05-.2-.05-.3.1.05.1-.05.15-.1-.05 0-.15.05-.15 0 .1-.05.05-.25.2-.25-.05.15-.05.2.05.25-.05.1-.05.25-.05.35-.05-.05 0 .1-.1.1-.05 1-.35 1.8-.45 2.8-.05.1-.15.2-.15.35-.05.15 0 .3 0 .45-.1.55-.3 1.15-.35 1.7-.05.35-.15.7-.2 1 0 .05.05.1.05.15-.1.65-.35 1.35-.4 1.95 0 .45-.2.95-.25 1.4-.1.5-.1 1-.25 1.45-.05-.05-.1-.05-.2-.05.2-.1.35-.65.15-.85.05 0 .05-.1.05-.15.05.05.05 0 .1 0 .1-.55.3-1.35.15-1.8.1.05.15 0 .1-.05-.2.05 0-.2-.1-.2-.15.35-.05.7-.05 1.2-.05.05-.1.1-.2.1 0 .45-.2.75-.05 1.15-.15 0-.05.3-.3.25.05-.2-.05-.1-.1-.15.05-.05.05-.15.1-.2-.25-.3.2-.85 0-1.2.1-.1.1-.15 0-.25h.15c-.05-.2-.1-.35.1-.4-.05-.15-.05-.2 0-.3-.5.65-.2 1.55-.5 2.1.1.2.05.3.15.45-.05 0-.15.05-.15.1.1.25.1.65-.05.95-.1 0-.1-.1-.2-.15.05.15 0 .15 0 .3.1 0 .1-.05.15.05-.05.05-.1.1-.2.1 0 .4-.15.75-.45 1.05.05.1.25.05.3 0-.05-.15.05-.2.15-.35.05 0 .05.05.1.1-.05.15-.15.2-.05.3-.15.1-.35.35-.25.65-.15.05-.15.25-.1.35-.3.2-.2.75-.4 1.05.15.5-.2.95-.15 1.5-.05 0-.1 0-.1.05.05.05.15-.1.15.05-.05.3-.25.55-.15.8 0 .15-.2.25-.15.35 0-.1.1-.05.15 0-.05.1-.25.05-.2.2 0 .1.1-.05.1.05.05.15-.05.15-.1.2-.05.1.1.05.1.15-.2.2-.05.35-.15.55.05 0 .05.05.05.1 0 .4-.05.85-.15 1.2 0 .05-.05.05-.1.05-.05.2.05.4-.15.65-.1 0 0-.25-.1-.2v.7c-.05.05-.3.1-.2.2.1-.1.2-.2.3-.2 0 .1-.05.15-.1.25 0 .05.1 0 .1.05-.05.2-.25.35-.25.65.1.05 0-.15.1-.1 0 .35.05.5.1.8-.05 0-.1-.05-.15-.05.05.25.35 0 .4.3-.15.05-.05-.15-.2-.1.05.15.05.15-.05.3.1.15.15.25.15.4.2.1.45.25.6.25 0 .2.3.1.3.3-.05 0-.1 0-.1.05.25-.1.55-.05.7-.15-.1-.05-.2-.15-.2-.3.1-.1.1.05.25-.05-.05.05-.05.15.05.15.05-.1 0-.1 0-.25.2-.05.35-.15.55-.25.05.05-.05.25.1.2-.05-.15-.15-.45.1-.45.05.25.15.35.25.45.05-.15 0-.35-.05-.45-.1.05-.2.05-.25-.05.1 0 .25.05.25-.05-.15-.05.05-.2.15-.25-.05 0-.1-.05-.1-.15.2.05.3-.2.45-.05-.05.1-.15.05-.2.2.15.05.25-.2.3 0 .1-.05.15-.1.25-.1v-.1s0-.05 0 0c.15-.05.2-.15.25 0 0-.3.2-.6.1-.9.15.05.05-.1.15-.1-.05-.35-.15-.55.05-.75-.05-1.2.25-2.25.25-3.5.1-.35.15-.65.15-1.1.05-.25.25-.4.15-.6h.1c.05-.1 0-.2 0-.3.15-.05.1-.4 0-.55l-.1.2c-.05 0-.05-.1-.15-.1-.05.15-.15.2-.25.2-.05-.05 0-.1 0-.2h.1c-.1-.5.25-.85.45-1.15-.1 0-.15 0-.2-.05.1 0 .05-.1.15-.1h.1c-.1-.1 0-.15.1-.25-.1-.1-.25.2-.3.1.05-.25.15-.15.2-.35-.05-.1.05-.05.1-.1s.05-.2 0-.35c-.05 0-.1.15-.15 0-.05-.05.05-.15.15-.15 0 .05 0 .1.05.1.15-.55.2-1.05.2-1.45-.1.05-.05.25-.25.25 0-.35.15-.5.35-.6-.05 0-.05-.05-.05-.1-.25 0-.2.25-.35.35-.1-.3.2-.45.3-.65-.15-.1.1-.3 0-.55 0-.05.15 0 .1-.1-.1-.05-.05.15-.2.1 0 .15-.05.2-.15.25 0-.1.1-.1.05-.25-.25.1 0 .4-.25.5.15-.55.1-.9.3-1.35.15 0 .15-.1.3-.05.25-.45.5-.8.3-1.25-.05.1-.05.1-.15.05-.05.15-.15.25-.2.4-.05-.1-.1-.1-.05-.2-.25.05 0 .2-.15.3-.15-.45.3-.85.75-.95.1-.3.15-.5.2-.8-.05 0 0-.1-.1-.1 0 .05.05.05.05.1-.1 0-.15 0-.2.05.1.2-.05.45-.25.5.05.3-.2.35-.35.5-.15-.1-.3.05-.3.2.05.05.1-.1.15 0-.35.45-.5 1.05-.8 1.55-.05-.15-.05-.3.05-.4-.1 0-.05-.1-.1-.1.1-.15.15-.25.15-.45.2-.1.4-.2.4-.55.05-.15.15-.3.35-.4.2-.25.25-.75.35-1.05-.05-.3.1-.4 0-.55.1-.1.05-.35.15-.45v-.05h-.05c.1-.15.2-.45.1-.55.2-.1.25-.4.45-.3-.1.1-.2.25-.3.4 0 0 .1 0 .1.1-.2.05-.2.25-.3.35.2-.1.45-.25.5-.4.05.05.1.05.15.05.05-.45.25-.75-.1-.95 0-.25.15-.35.1-.55.15.05 0 .3.1.35 0-.1.05-.05.1 0 .2-.35.05-1.1.35-1.3.05-.4-.05-.65.1-.95-.15-.05.1-.1-.05-.2.35-.1.05-.8.3-.8 0-.45.3-.95.05-1.4-.15.2 0 .45-.25.65-.05-.5.2-.65.25-1.25.15.05.15-.05.25-.05.4-.7.25-1.6.55-2.3 0 .05.05.1.1.1.1-.35.2-.75.05-1.1.15 0 .15-.1.2-.2-.05 0-.1 0-.1-.05.15.05.05-.15.15-.2-.05-.05-.1.1-.15 0 .05-.15.3-.25.2-.4 0 .1-.1.15-.15.25 0-.15 0-.2.05-.25-.05-.05-.1.1-.1 0 .1-.1.25-.15.2-.35h-.1s0 .05-.05 0c0 .1-.05.15-.1.1.1.3-.2.3-.05.5 0 .1-.15.05-.2.15-.05.1.05.1.05.2-.1-.05-.25 0-.15.1 0-.1.1 0 .15 0 .05-.1.1-.25.2-.15-.2.1-.15.5-.4.55.15.15-.05.2.1.3-.05 0-.05.05-.05.1-.05 0-.05-.05-.15 0 .05.15-.05.2-.15.25-.05-.1-.15-.15-.25-.25.3-.3.25-.75.45-1.1.05-.05 0-.05 0-.15.2-.05.45-.25.35-.5.05-.1.15-.05.2-.1h.05c.05-.1.15-.15.2-.25-.05.05-.05 0-.1-.05.05-.05.15 0 .15-.1 0-.5.3-1 .3-1.6h.1c0-.55.35-.85.2-1.35.1-.35.25-.6.2-.95.05-.05.15-.05.2-.1.1-.1-.1-.1 0-.25-.15-.35.15-.6.25-.95-.2-.7.55-1.15.35-1.75.05-.05.1-.05.15-.1 0-.2-.05-.2-.15-.35.25-.5.2-1 .35-1.55h.15c0-.05-.05-.3 0-.4 0-.1.15-.1.05-.3.2 0 .2-.15.15-.3.1-.3.2-.6.25-.9 0-.05.05-.05.1-.05-.05-.2.05-.35.15-.45-.1 0-.2 0-.25-.05.15-.15 0-.25.05-.35h.15c0-.2.05-.3.15-.45-.15 0 0-.1-.1-.1.1 0 .1-.1.2-.15.1-.7.55-1.3.6-2.15.05 0 .05-.05.1-.05 0-.4.15-.5.1-.85.15-.15.2-.45.3-.65 0-.05 0-.15-.05-.2.3-.4.5-.85.55-1.4.1-.05.2-.2.1-.35.1 0 .15 0 .2-.05.25-.8.4-1.5.7-2.35h.1c0-.15.05-.25.1-.3.05-.5.4-.65.45-1.2.1 0 .05-.1.15-.1.3-1.15.85-2.1 1.45-3.05-.05-.25.2-.4.25-.7.05-.05.15-.15.25-.15.15-.5.55-.9.6-1.45.15-.1.3-.25.35-.55.5-.2.35-.8.15-1.25zm-7.6 5.85c-.1 0-.05-.15.05-.1 0 .05-.05.05-.05.1zm-.65 1.55s.05.05 0 0zm-.5.45v.1c.1.05.1-.15.05-.1h-.05zm-1.05 2.75c0-.05.05-.05 0 0 0 .05-.05.1-.1.05v-.05h.1zm-.6.95s.05.05 0 0zm.3.4c0 .1-.15.05-.1-.05.05 0 .05.05.1.05zm-.1.2c-.1.05-.15 0-.1-.1 0 .05.1.05.1.1zm-.4 0c0-.05.05 0 0 0zm-.05.05s0 .05 0 0zm-.2 1.3c0-.05.05 0 .05-.05.05 0 .05.05.05.1h-.1v-.05zm-.9.35s.05 0 0 0zm1.8.25c0-.05.1-.05 0 0 .05.05-.05 0 0 0zm-1 2.9c.2-.3.25-.75.55-1-.15.75-.35 1.35-.5 2-.2.1-.25.3-.2.5-.1 0-.1 0-.15.05 0 .4-.4.7-.35 1.3-.2 0-.05-.3-.2-.3.15-.8.5-1.3.7-1.95 0-.05-.05-.05-.1-.1.05-.2.15-.3.15-.55.05 0 .05.05.05.05s.05-.05.05 0zm-1.9-.85s.05.05 0 0zm1.65 1.6c0-.15 0 .1 0 0zm-2.25.35c.05-.1.05.15 0 0zm-.3.55c-.15-.05.05-.1 0-.2.2 0 0 .1 0 .2zm6.05 0v-.05h.1v.1c-.05-.05-.05 0-.05 0h-.05v-.05zm-3.45.25s0 .05 0 0zm-2.75.2c-.1-.05-.05-.2.05-.2 0 .1-.05.15-.05.2zm0 .1c.05-.05.05-.1.1-.1.05.1 0 .1-.1.1zm-.1.15c-.15-.05 0-.15 0-.2.15 0-.05.1 0 .2zm1.55 1.45c.15-.15.2-.3.3-.55.05.15.1.65-.15.7 0 .25.05.3.05.5-.05 0-.1 0-.15.05 0 .15-.05.45-.15.55-.1-.25.15-.5.15-.8l-.1-.1c.05-.15.15-.15.05-.35zm.75 1.05c.05-.25.1-.5.15-.7 0 .25.05.55-.15.7zm-3.35-.6c.05-.15.05.1 0 0zm7.1.35c.05-.05.05-.15.1-.1.05.05 0 .1-.1.1zm-3.85.45c0-.1.1-.1.1-.2.05 0 0 .2-.1.2zm3.9.1s.05 0 0 0zm-.3.25s.05 0 0 0zm-.45 1.25c.05-.1.15-.15.25-.25.1.1-.1.15-.05.25h-.2zm0 .1s.05-.05.1-.05v.1c-.05 0-.15.05-.1-.05zm-.1.7c0-.2.25-.2.3-.4.05.15-.2.35-.3.4zm-.4.05s.05-.05.05-.1c.15.05 0 .2-.05.1zm-.05.5c0-.15.1-.2.2-.15-.05.1-.05.15-.2.15zm.3.5c-.05-.05 0-.2.15-.15-.05.1-.1.1-.15.15zm-.1.25c-.05-.1.1-.05.1-.15.05.05.1.05.1.1-.05.05-.15.05-.2.05zm-.35.2v-.05h.1v.05h-.1zm-3.25.1c-.05 0 0 .05 0 0zm3.35 1c-.4 0-.3.4-.65.4 0 0 0-.05-.05-.05.1-.2.25-.3.25-.55.15 0 .05.15.1.2h.1c0-.05.05-.25 0-.3 0-.1.1-.1.15-.15 0-.25.2-.2.15-.45.2-.05.2.1.2.25-.2.05-.2.25-.35.35-.1.1.1.2-.1.2.1.15.15-.05.25 0 0 .05-.05.05-.05.1.05 0 .05.05.05.1-.05 0-.05-.05-.05-.1zm-.4-.3c0-.05.05 0 0 0zm.2.8c0-.15-.05-.35.2-.35 0 .15-.05.3-.2.35zm-.5-.05c.05-.15.05.15 0 0zm.85.05c-.05-.05 0 0 0 0zm-.5.1c.05 0 .05 0 .05-.05h.1v.05c-.05 0-.05.05-.05.05h-.1v-.05zm.05.25v-.1h.1v.1h-.1zm-.25.1c.1.05.05-.1.1-.1.05.1.05.3-.1.35v-.25zm.2 0s0 .05 0 0zm-3.3.25s0 .05 0 0zm-.05.15v-.05h.1v.05h-.1zm3 .3c.25 0 .1-.3.35-.3 0 .15.05.25-.1.35.2.3-.15.45-.15.8-.1 0-.1.05-.2.1.05.15-.05.2-.1.35-.15 0 .05-.1-.05-.1 0-.1.15-.1.1-.25-.15-.05-.05.1-.2.05.05-.2.3-.3.15-.5.2-.05.2-.35.2-.5zm.25 1.1s.05.05 0 0zm-14.4.1s0 .05 0 0zm11 .1c.05-.05 0-.15.15-.1-.05.05-.05.15-.15.1zm0 .35c-.05-.05-.05-.15 0-.25h.1c0 .15-.1.15-.1.25zm3.2.1s.05.05 0 0zm-14.05.6c-.1 0-.15-.25-.1-.35.15 0 .05.35.1.35zm-.2-.3c-.05 0 0 .05 0 0zm13.55.4s.05 0 0 0zm.55.1c0-.15-.05.2 0 0zm-3.3.3c0-.05.05-.05.1-.05 0 .05-.05.05-.1.05 0 .05-.05.05 0 0zm2.6.15v-.05h.1v.05h-.1zm0 .65c0-.15.1-.25.1-.4.15.05.05.35-.1.4zm.25.35c.05.05.05.1 0 .15-.1-.05-.1-.05-.05-.15-.1-.05-.05.1-.15.1.05-.2.3-.3.2-.5.1-.1.2-.15.25-.3.1.05 0 .4-.15.45-.05.05.15-.05.1.1h-.1c.05.05 0 .05 0 .15h-.1zm-.45.9c.15-.15.25-.35.3-.6.2.05 0 .2.1.3-.15.05-.1.1-.1.25-.1.05-.15.1-.3.05zm-.05-.2v-.1h.05v.1h-.05zm-.15.25c.05-.05.05-.15.1-.25.1.1 0 .25-.1.25zm-1.45-.15c0-.05.05 0 0 0zm-.15.35c.05-.1.1-.2.15-.35.1 0 0 .25 0 .35h-.15zm2.1 0c-.05-.05 0-.25.1-.2 0 .1-.05.1-.1.2zm-.4-.05c.05-.05.15-.05.2-.05 0 .1-.2.4-.4.4-.2.15-.2.45-.45.55.1-.1.1-.15 0-.3.15-.05.1-.2.25-.2-.15-.25.3-.5.4-.4zm-1.8.45c-.1 0-.1.1-.25.05 0-.05.1-.05.15-.15-.05-.1-.1.05-.15 0 .1-.15.2-.25.4-.25 0 .05 0 .1.1.05-.1.1-.1.2-.1.45h-.15c0 .1.15 0 .1.15-.1.15-.5.45-.2.6 0 .1-.1-.05-.15 0 0 .05 0 .05.1.05-.15.15-.2.4-.2.5 0 .1.1-.05.15.05.05.45-.1.45-.05.95-.05.05-.1.05-.2.05.05.15.1.2.1.3 0 .1-.05.15-.1.2 0 .3-.15.6-.15.9-.4 0-.2.45-.35.75 0 .1.05-.05.15 0-.05.1-.15.3 0 .25-.15.2.1.4-.1.55h.25c.05.15-.2.05-.25.15-.05 0-.05-.05-.05-.1 0 0-.05.05-.05-.05-.05.05-.2.4-.05.35-.05-.15.05-.15.15-.15.05.1-.1.1-.15.15v.05c.1-.1.15.05.1.15.05-.1.35-.15.25-.25.05-.1.2-.05.2-.1.2.35 0 .8-.2 1-.2-.1.1-.25 0-.4-.25.2-.05.6-.35.7.05.15-.05.2.05.25-.15.15-.05.45-.3.5.05-.15.2-.55.15-.75-.1 0-.05.15-.2.1 0 .05.05.05.05.15 0-.05.1 0 0 0 .05.05 0 .05 0 0-.1.1-.15.3-.2.45-.05.05 0-.25-.05-.35h.1c0-.1 0-.15-.05-.25.2 0 0-.45.1-.55 0-.05-.05 0-.1 0 .05-.1.1-.05.2-.15-.1-.25 0-.45.1-.6 0-.1-.15-.05-.1-.2.15 0 0-.1.1-.25-.05.05-.15 0-.1.1-.1 0 0-.15-.05-.2.1-.05.15-.1.2-.1 0-.15-.05 0-.15 0 .1-.25.3-.4.35-.8-.15 0-.05.15-.2.1.1-.35.4-.45.2-.85.3-.2.4-.45.5-.85-.1 0-.1.1-.1.2-.1-.05-.05.1-.15.1.05-.1-.05-.3.05-.4-.1-.05-.05-.1-.05-.2-.15 0-.05.2-.25.2.05-.1.15-.2.15-.3.1 0 .2-.05.15.05.2-.2 0-.6.2-.75-.05-.05-.1-.05-.15-.05.15-.25.35-.6.25-1 .1 0 .1-.1.2-.1 0-.05-.2 0-.2-.05 0-.1.1-.15.1-.2.05 0 .05.05 0 .1.15-.05.15-.2.25-.3zm2.1-.05c-.1-.1-.05-.3.1-.3.1.15-.05.25-.1.3zm-1.1.15c-.1 0-.1-.25.05-.2 0 .1-.1.1-.05.2zm.6 0c0-.1.1.05.15-.1.05.05 0 .25-.1.2.05-.05 0-.1-.05-.1zm-.1.3c.05 0 .05-.05.05-.15h.15c-.05.1-.05.25-.2.15.05.05-.05.05 0 0zm0 .2c.1 0 .1-.05.15-.05 0 .15.05.1 0 .2h-.15c0 .15.15.05.15.15 0 .05-.05.05 0 .1-.1-.1-.1-.05-.15.05-.3-.1.15-.3 0-.45zm-1.95.15c-.1-.05.05-.05 0-.15.1 0 .1.2 0 .15zm1.45-.05c-.1.15-.15-.1 0-.1 0 .05-.05.1 0 .1zm-10.55.05c.1-.1-.1.1 0 0zm10.85.5c0-.1.1-.1.1-.15.1 0 0 .15-.1.15zm.35 0c-.1-.05-.1-.1-.1-.15.1-.05.15.1.1.15zm-.6.2c-.1-.05.1-.15.05-.25.05 0 .1.05.15.05 0 .15-.2.1-.2.2zm-.05 1.9c-.05 0-.1.1-.15 0 .15-.2.2-.35.25-.7.2-.05.2-.25.1-.45.1 0 .1-.15.25-.15-.05-.2.15-.4.3-.5 0-.2-.05-.25.1-.3 0 .1-.1.15 0 .2 0 .05-.05.15-.15.15.1.2-.05.4-.1.55.15.1.05-.05.15-.05-.1.25-.3.6-.35.8-.15.15-.35.2-.4.45.15 0 .05-.25.3-.2-.05.1.05.1 0 .2s-.1.2-.15.35h.1c-.05.25-.15.15-.3.2.2.25-.1.45 0 .7-.15.05-.2.15-.25.25-.15-.2 0-.25-.05-.5-.15.2-.15.45-.1.6 0 .1-.1.1-.15.15 0 .05.05.05.05.1.05 0 0 .05 0 0-.2.05-.2.15-.3.25-.1-.15.1-.3.15-.35-.15-.1-.3.3-.25.5-.25.15-.05.6-.3.75.1-.4.05-.7.2-1.1 0-.1-.1-.05-.1-.15.15-.05.15-.2.1-.25.05-.1.2-.15.3-.1.3-.3.4-1 .75-1.4zm.35-1.55c0-.15.15-.15.1-.35.05 0 .05.05.1.05 0 .15-.05.25-.2.3zm-.6-.1c-.1 0-.15-.05-.1-.15.1 0 .1.1.1.15zm1.05.1s.05.05 0 0zm-1.45.85c.1-.25.2-.45.3-.75.05.35.05.55-.05.85-.05-.05-.15-.05-.25-.1zm.7-.15c.05.05.05 0 .05 0 .05 0 .05.15-.05.1v-.1zm.45.4c0-.1.05-.15.15-.15-.1.05 0 .2-.15.15zm-.95.25c0-.1.1-.05.05-.2h.1c.05.15-.05.3-.15.2zm-1.35.05c.05-.05.05-.2.15-.2-.05.05 0 .2-.15.2zm2.1 0c0-.15.2-.15.25-.1 0 .1 0 .15-.1.2-.1 0-.1-.1-.15-.1zm-2 .1c0 .05-.05 0-.1.05 0-.05.05-.05.1-.05zm2 .15c.05-.05.1-.05.1-.1.05 0 0 .1 0 .1h-.1zm-.7 0c.05-.05.15 0 .25 0-.15.05-.1.3-.25.35 0-.1.1-.2 0-.35zm-.5.85c.05-.2.05-.45.15-.7.15.15.1.7-.15.7zm-.35-.55v-.05c.1.05.1.05.05.1h-.05v-.05zm-.55.3c0-.1.2.05.15-.05.05.1 0 .2.15.25-.05.15-.1.3-.25.35 0-.1.05-.15.05-.25-.05 0-.05 0-.05.05-.15-.1.15-.25-.05-.35zm1.3.1s.05.05 0 0zm-.9.4c.05-.15.05.15 0 0zm.5.05c0-.05.05-.05 0 0 0 .05-.05 0 0 0zm.65.35h-.05.05zm-2.25.35s.05.05 0 0zm2.15.25c-.1-.05-.05-.05-.05-.15.1 0 .1.1.05.15zm.15-.1c.05-.15.05.1 0 0zm.15 0c.15 0-.2.25 0 .05v-.05zm-.8.15c0-.05.05-.05.15-.05 0 0-.05.05-.05.1h-.05c0-.05 0-.05-.05-.05zm.45.3c-.15-.1.05-.3.2-.3-.05.15-.15.15-.2.3zm.4 0v-.25h.1c0 .15 0 .25-.1.25zm-2.5.05c0-.1.1-.1.15-.05 0 .05-.1.05-.15.05zm1.7.15c-.05 0-.05-.05-.05-.1.05 0 .1 0 .1.05-.05 0-.05 0-.05.05zm.7-.05s0 .05 0 0zm-.8.2v-.1c.05 0 .05.05.05.1h-.05zm-.45.5v-.05c.05 0 .1.05.1.1-.05 0-.05-.05-.1-.05zm-.15 1.45c-.05-.55.15-.85.15-1.3h.1c-.1.4-.1.85-.25 1.3zm.5-1c0-.05 0-.1.05-.1v.1h-.05c0 .05 0 .05.05.05-.05.15.05.3-.05.5-.3-.05 0-.35-.05-.55h.05zm-.95.25c-.05-.05.05-.05.1-.05 0 .05-.05.05-.1.05zm-.45.45c0-.05 0-.15.1-.15.05.15-.05.15-.1.15.1.1-.15.05 0 0zm.35-.05v-.1h.1v.1h-.1zm-.6 0c.05 0 .1 0 .1-.05.05.1-.05.2-.05.35-.15-.05 0-.15-.05-.3zm.65.1c.1-.15.1.1 0 0zm-.05.2s0-.1.1-.1c0 .1-.05.1-.1.1zm-.45.2c0-.15.05-.2.15-.25 0 .15-.05.2-.15.25zm-.15-.1c.05-.1.05.15 0 0zm-.1 1.4c-.05.3-.1.8-.25 1.15-.15 0 .1-.2-.1-.2.2-.1.2-.45.1-.7.2-.2.1-.45.2-.75 0 0 0-.05-.05-.05-.05-.1.05-.1.1-.15-.1-.1.05-.25-.1-.25.05-.1.15 0 .2-.25 0 .15-.05.35-.05.5.05.1.1-.05.2 0 0-.05-.05 0-.1 0 .5 0 .35-.55.65-.7-.05.15-.1.4-.1.6-.35.2-.25.6-.5.85-.05 0-.05-.25 0-.25 0-.1-.2.05-.15-.1-.05 0-.05.1-.05.15.25-.05 0 0 0 .15.05 0 .05.05 0 0zm1.65-1.35c.1-.1-.1.1 0 0zm-1.55.05c.05-.1.05.15 0 0zm2.1.25s0 .05 0 0zm-1.95.1c0-.05.05 0 0 0zm.9.35c-.05.05-.05.05-.1 0h.1zm.9.25c.05 0 .05-.05.05-.05h.05v.05l-.05.05h-.05v-.05zm-1.2.4c0-.1.05-.15.15-.15 0 .1-.05.15-.15.15zm-.75 0c.05-.15.05.15 0 0zm1.7.15c-.05 0 0-.05-.05-.1.1 0 .1.05.1.1h-.05zm.1.25v-.1h.1v.1h-.1zm-1.45.05c.05-.15.05.15 0 0zm1.1.2v-.1c.1 0 .1 0 .1.1h-.1zm-1.65.45c-.05-.05 0-.2.05-.3.1.15 0 .4 0 .75-.15 0-.15.15-.2.2.15.1-.05.1-.1.2.1 0 .1 0 .1-.05.1 0 .05.1.05.15-.15-.05-.15.05-.2.15.1 0 .1-.05.2-.05-.05.05 0 .05 0 .15-.05 0-.1-.05-.25-.05-.1-.1.1-.2 0-.25.15-.15.1-.55.1-.85.1-.05.1 0 .15.05.05-.05.05-.1.1-.1zm1.05-.1c0-.05.05 0 0 0zm-.6 0c0 .05 0 .05-.05.05 0-.05.05-.05.05-.05zm.3.15c.1-.05.15 0 .15-.05.1.2-.05.45-.25.5.05-.15.2-.25.1-.45zm-.05.55c.05-.05.1-.05.1-.1.05.1.05.55-.15.55 0-.15.15-.3.05-.45zm-1.9.55c-.05-.15 0-.25.05-.35.1 0 .1.05.15.05-.05.1-.1.25-.2.3zm1.75 0c.1 0 .1-.05.25 0 0 .15-.1.2-.1.35-.2-.05-.05-.2-.15-.35zm-1.75.15c.05-.05.1-.05.15-.1.05.1 0 .3-.15.3.1-.1 0-.1 0-.2zm.9.2h.05c.1-.05-.1-.2 0-.25.2 0 .15.45-.05.4-.05-.05 0-.05 0-.15-.05 0-.05 0-.05-.05-.1.05-.05-.2.05-.15-.05 0-.05.05-.05.15.05 0 .05.05.05.05zm-.75.15c.1-.1.1-.25.15-.35.1.1.05.35-.15.35zm.6-.05v-.1h.1v.1h-.1zm-.7.15c-.15 0-.05-.2 0-.1v.1zm1.7 0v-.05h.1v.05h-.1zm.95.15c-.1.05-.15-.05-.15-.15.1 0 .2.05.15.15zm-.35 1.05c0-.2.1-.65.25-.8.15.05.05.35-.1.3 0 .2 0 .4-.15.5zm.35-.45c0-.15.15-.2.15-.35.05.1 0 .35-.15.35zm-3.1.05c.15-.05.2-.2.25-.35.15 0-.05.2.05.3-.1 0-.1.15-.25.15.05-.1 0-.1-.05-.1zm.9 1c.05-.1.05-.3.2-.2 0-.15.1-.3 0-.35.05-.05.2-.2.1-.3.05-.05.15-.15.25-.15-.1.35-.2.95-.15 1.55-.25.25-.25.75-.4.95-.15-.05-.05-.2 0-.25 0-.05-.05-.1-.05-.15-.1 0 0 .2-.1.15 0-.3-.1-.7.25-.8-.05-.15.1-.4.1-.6-.15-.05-.05.15-.2.15 0 .05.05.1.1.05 0 .15-.05.25-.1.3-.05 0-.05-.05-.15-.05.05-.05.1-.15.15-.1.05-.1-.15-.15 0-.2zm2.1-.75c0-.1.05-.15.15-.15 0 .1-.05.15-.15.15zm-3.05.05s.05.05 0 0zm0 .6c.05-.2.1-.25.1-.5.1 0 .1.05.15.05-.15.15 0 .3-.1.45h-.15zm2.6.05c.15-.05.2-.25.25-.35.15 0 .1.1.05.25h-.1c.05 0 0 .1 0 .2-.2.1 0 .4-.2.55 0-.25.05-.45 0-.65zm-2.65.15c.05-.05.05-.1.05-.15.1 0 .05.2-.05.15zm2.6 1c-.1 0-.1-.25 0-.35.05 0 .05.1.1.1-.05.1-.05.2-.1.25zm.35-.15c0-.05.1 0 0 0 .05.05-.05 0 0 0zm-3.5.6c0-.1.1-.1.05-.2.05 0 .1.25-.05.2zm2.9-.15s0 .05 0 0zm-2.75.05c0-.05.05-.05.1-.05 0 .05 0 .1-.1.05zm2.95 0s.05 0 0 0c0 .05 0 .05-.05.05 0 .05 0 .1-.05.1v-.1h.05l.05-.05zm-.35.55c.05-.1.05-.25.2-.25.05.1-.05.25-.2.25zm.85.15s0 .05 0 0zm-.4.15c0-.05.05-.05.15-.05 0 .05-.05.05-.15.05zm-.6.45c-.05-.05-.05-.05 0-.1.05.05.05.1.1.1 0 .1-.1.2-.2.1 0-.05.1 0 .1-.1zm.6.1c.05-.1.05.15 0 0zm-.75.2c.05-.05.25-.05.25.05s-.1.1-.15.15c0 .05 0 .15.05.2-.05.1-.15.2-.25.25 0-.25.2-.4.1-.65zm-1.4.95s-.05 0-.05.05c-.05-.05-.05-.15-.05-.25 0 .1.15 0 .15.1.1-.2.15-.4.25-.75.1.05.1-.05.2-.05-.1.15-.1.35-.25.45.05.1.1.15.1.25-.05.05-.1.15-.2.25-.05 0-.15.05-.15-.05zm1.3-.2v-.05h.1v.1h-.1v-.05zm-1.85.35c.05-.15.1-.2.1-.3.05.05.05.1.1.15 0 .1 0 .2-.15.2 0 0 0-.05-.05-.05 0 .05 0 .05-.05.05v-.05h.05zm-.05-.2c0-.05.05-.05.1-.05 0 .05-.05.05-.1.05zm1.8.1v-.15c.1 0 .1.05.15 0-.05.1-.05.2-.15.15zm0 .55c-.15 0-.05-.2 0-.1v.1zm.4.75c.15-.15-.05-.4.2-.6.15 0 .05.25.1.35h-.15c.05.05.05.15.1.2-.05.05-.2.1-.25.05zm0 .3c-.05-.2.1-.2.2-.2 0 .1-.05.2-.2.2zm.05.25c-.1 0 0-.15.1-.15 0 .1-.05.1-.1.15zm-.6.1v-.1h.05v.1h-.05zm-.1.25c0 .05-.05.05-.1.05 0-.05.05 0 .1-.05zm.05 1.3s.05 0 .05-.05h.05c.05.05-.05.05-.1.05zm-2.95 0c-.05 0 0 .05 0 0zm-.05.4c-.1 0-.15-.1-.1-.15.1 0 .1.05.1.15zm3.5.15s.05 0 .05-.05c.1.05 0 .15-.05.05zm-.6.15v-.1h.1c0 .05-.05.05-.05.1h-.05zm.05.15c-.1-.05 0-.15.1-.1 0 .05-.15 0-.1.1zm.2.4c0 .05-.05.05-.1.05.05 0 .05 0 .1-.05zm-.35.2c0-.05.05-.05.05-.15.05 0 .05.05.1.1 0 .05-.1.05-.15.05zm.15.05c.05-.15.05.1 0 0zm.35 0c.05-.15.05.1 0 0zm0 .15c0 .05 0 .05-.05.05 0-.05.05-.05.05-.05zm.1.3c0-.1.1-.1.15-.05-.05.05-.1.1-.15.05zm-.1.05s.05.05 0 0zm-1.05.25c.1-.05.1.05.2 0 0 .15-.2.1-.2 0zm0 .2c.05 0 .05-.05.05-.05h.05v.1h-.1v-.05zm-.45.15c-.15.05-.15-.05-.1-.1.05 0 .1.05.1.1zm.2-.05c.05-.05.1-.05.15 0-.05.15-.1.15 0 .3-.2-.05-.1-.1-.3-.05.1-.1-.05-.1-.05-.2.05-.05.1-.1.2-.05zm-1.75.45s0 .05 0 0zm.1.15c0-.05 0-.1-.05-.15.05-.1.2.1.2 0 .1 0 .1.1.1.15-.05 0-.05-.05-.05-.05-.1-.05-.1.05-.2.05zm-.1.1v-.1h.15c-.05.15-.1 0-.15.1zm.15 0v-.1h.1v.1h-.1zm1 .35s0 .05 0 0zm9.45-55.8c0-.15.2-.3.15-.4-.05.15-.2.25-.15.4zm0 0c-.1.05.05.2 0 0zm-.2.55c.05-.15-.1 0 0 0zm-.15-.05c0 .05 0 .05-.05.05v.05c.1.1.1-.1.05-.1zm.15.05c-.05.15-.1.3-.2.45.15-.05.25-.3.2-.45zm-.3.2h-.05v.1c.1.05.1-.15.05-.1zm-.05.2c0 .05 0 0 .05 0 0-.05-.05-.05-.05 0zm-.2.35s.05 0 0 0zm-.05.05c-.25.2-.2.5-.35.75.15-.05.15.1.2.15 0-.4 0-.6.15-.9zm-.3.7s.05.05 0 0zm.45-.7v.1h.05v-.1h-.05zm0 .2h0zm-7.5.4c0 .05.05 0 0 0zm7.35.05c0 .05-.05.1 0 .15.05-.05.1-.1 0-.15zm-.1.5c-.05 0 0 .05 0 0zm-.8.15c-.05 0 0 .05 0 0zm.4.45c-.05-.2.05-.3-.05-.45 0 .05 0 .15-.1.1 0 .15.05.1 0 .2.15-.05 0 .2.15.15zm-.4-.15c0-.1 0 .15 0 0zm.1.2c-.15.2.2-.05 0-.05v.05zm.3-.05c0 .1.15 0 0 0zm-.65.45c-.05 0-.15.15-.1.2.05-.1.1-.1.1-.2zm.1.2c0-.05.15-.15 0-.2v.2zm-.3.05c.05-.15 0 .2 0 0zm.3-.05c-.15.1-.15.15-.15.25h.15c0-.15-.05-.1 0-.25zm-.35.3c.05.15.05-.15 0 0zm-.1.05c0-.05.05-.05 0 0zm.25 0c.15.05 0-.1 0 0zm-.25 0c-.05 0-.05.1-.1.15.1 0 .1-.1.1-.15zm.25 0c0 .05-.05.05 0 0zm-.1.2s.05 0 0 0zm.2 0v-.05.05zm-.25.1c0 .05.05.05.05 0-.05 0-.05-.05-.05 0zm-.1.1v.1h.05V47h-.05zm0 .35c0-.05.05 0 0 0zm-.4.05c0-.15-.05.2 0 0zm.4-.05c0 .05-.05.05 0 0zm-.2.45c0 .05-.05.05-.05.15.15.05.2-.15.05-.15zm-.4.7c.05 0 0 .05 0 .1-.05-.05 0-.1 0-.1zm-.35.2c.05.05.05.15.1.15.05-.05.05-.15-.1-.15zm.25.15c.1 0 .05.15.1.1.1-.05-.05-.2-.1-.1zm-.4.7c.05.05 0 .1 0 .1-.05 0 0-.05 0-.1zm-.5.7s.05.05 0 0zm.45.05v.05h.05v-.05h-.05zm-.75.15c.05.15.05-.1 0 0zm.2.15c0-.05.05 0 0 0zm.2.1c-.1 0-.15 0-.15.1.1 0 .1-.1.15-.1zm-.5.2s0 .05-.05.05V51c.1.05.1-.1.05-.1zm.25.05c0-.05.05 0 0 0zm-.75.95c0 .05 0 .1.05.1 0 0 0-.05 0 0 0-.05 0-.1-.05-.1zm-.2.65c.05 0 .1-.1 0-.1v.1zm-.9 1.8c-.05 0 0 .05 0 0zm-.25.7s.05.05 0 0zm-.1.1c0-.05.05 0 0 0zm.2 0c0 .05.05.05.05 0 0 0-.05-.05-.05 0zm-.2.35c-.05 0-.05-.05-.05-.05 0-.05.2-.15.05-.2-.05.15-.25.4-.25.6.1-.1.1-.2.15-.25 0 .1.15 0 .15 0-.05 0-.05-.1-.05-.1zm0 0c0-.05.05-.05 0 0zm2.3.05c.05.05.05 0 .05 0h-.05zm-2.35.4c-.15-.1-.1.15-.2.2.15-.05-.1.15.1.15 0-.2.05-.25.1-.35zm-.25.35c0 .05 0 .15.1.1.05-.1-.05-.1-.1-.1zm-.2.5c.05 0 .05 0 .1-.05v-.05h-.1v.1zm-.5.9c.1 0-.05-.15 0 0zm0 0c-.05 0 0 .05 0 0zm-.1.1c0 .05 0 .1.05.15v-.05c0-.05 0-.1-.05-.1zm.05.25c-.05-.1-.15 0 0 0zm-.2.25h.05v-.05-.1c-.05 0-.05.05-.05.15zm2.55 3.3c.05 0 .1 0 .1-.05-.05.05-.1 0-.1.05zm-.3 1.1c.05.15.05-.1 0 0zm3.85.85c0-.05.05 0 0 0zm-.3 1.25c.05 0 .1 0 .1-.05-.05 0-.1 0-.1.05zm-8.55.15c0-.05 0 0 0 0zm-.05.15c.1-.05-.05-.2 0 0zm4.6.05h.1c0 .05-.05 0-.1 0zm0 .15c0-.05.05 0 0 0zm3.4 0v-.05.05zm-8.15.1c-.15.05 0 .2 0 0zm7.8.25c.05.15.05-.1 0 0zm-3.35.45c0-.05.05 0 0 0zm.15.3c-.1 0 .05.15 0 0zm-.35.45c.05 0 .05 0 .05-.05 0 .05-.05 0-.05.05zm.4.3h.05v-.1c-.05 0-.05.05-.05.1zm-.25.05c.05.05-.05.05 0 0zm-.2.45c.05 0 .15.05.15-.05-.05.05-.2 0-.15.05zm-11.05.55v.05c.05 0 .05.05.05.05 0-.05.05-.15-.05-.1zm-.05.2h.05c0-.05 0-.1-.05-.15-.05.1 0 .1 0 .15zm0 0c-.15 0 .05.1-.05.2.2.05.1-.15.05-.2zm10.95.6c-.05 0-.15.1-.1.15.05-.1.15-.05.1-.15zm-11.05.2c.05 0 .1 0 .1-.05-.05 0-.1 0-.1.05zm14.15.25c0-.05.05-.05 0 0zm0 0c0 .05-.05 0 0 0zm-13.95.25c-.05 0-.05-.05-.1-.05-.05.05 0 .15.05.2 0-.1.05-.1.05-.15zm10.85 0c.05.15.05-.1 0 0zm-.05.25c.15.05 0-.1 0 0zm3 0s.05 0 0 0zm-3 0c0 .05-.05.05 0 0zm2.9.05c.05 0 .05 0 .1-.05-.05 0-.1.05-.1.05zm-.05.05c.05 0 .05 0 .05-.05l-.05.05zm0 0c.05.05-.05 0 0 0zm-3.2.5c0-.05.05 0 0 0zm-.05.3s.05 0 0 0zm-.1.1c-.05.15.2 0 .1-.05l-.1.05zm3.5.3v-.05.05zm-3.3.4c-.15.1.15.1 0 0zm-.35.05c-.1.05.05.15 0 0zm-.05.25c0-.05.05-.05.05-.05 0 .05 0 0-.05.05zm-.05.1s0 .05 0 0v.1c.05.05.1-.15 0-.1zm-9.45.15c-.15 0 0 .1 0 0zm9.45.05c-.1 0-.15 0-.15.05.05 0 .15 0 .15-.05zm3.2.1h-.05c.05.05.05 0 .05 0zm-.1.15c.15 0 0-.15 0 0zm0 0c-.05 0 0 .05 0 0zm-3 .25c.1-.1-.1.1 0 0zm1.3.05s0-.05 0 0zm2.1 0c.05.15.05.15 0 .3.15 0 .1-.2.1-.3h-.1zm-2.9.8c-.1.05-.2.05-.25.15.05 0 0 .15.05.15 0 .05-.15.05-.15.1.1.05.1.2.2.25.1-.25 0-.4.15-.65zm-.7.1c-.05 0 0 .05 0 0zm.2.2c.05.15.05-.15 0 0zm-7.9.35s.05.05 0 0zm8.25.05c-.15-.05-.3.05-.2.15.05-.1.2-.05.2-.15zm-.4.1c0-.05.05 0 0 0zm.1.15c.05.15.05-.15 0 0zm-.05.15c-.15 0-.15-.1-.2-.15 0 .15-.1.15-.1.3.15 0 .25-.05.3-.15zm0 0c0-.05.05-.05 0 0zm.9.05c0-.05 0 0 0 0zm-.65.05c0 .05-.1.1 0 .1 0-.05.05-.05 0-.1zm-.5.1c-.05.05-.1.15-.1.3.15 0 .1-.3.1-.3zm.35.3c.1 0 .1-.1.1-.2-.15 0-.1.05-.1.2zm0 0c-.15-.05 0 .1 0 0zm-.1.3s.05 0 .05-.05c0 0-.05 0-.05.05zm-.35 1.55c.05-.15.25-.15.25-.35-.05.05-.1 0-.1-.05.1 0 .25-.45.25-.75 0-.1.05-.25-.05-.35 0 .2-.1.3-.05.45-.2.1-.1.4-.2.7-.05.15-.3.25-.1.35zm-.1-1.05c-.05.1-.25.3-.05.35-.1-.15.2-.3.05-.35zm.95.45c-.05 0 0-.05 0 0zm0 0c.05 0 .05.05 0 0zm0 .15c.05.1.05-.15 0 0zm-1 .1c0 .1-.2-.05-.15.1h.2c0-.05 0-.1-.05-.1zm-.2.3c.05.1-.1.2 0 .25.05-.05.15-.25 0-.25zm.35.05v.1c.1 0 .1-.1.15-.1h-.15zm.95 0c0 .05.1.05.1 0-.05.05-.05-.05-.1 0zm-.95.25c-.05.15.15-.05 0 0zm-.45.05c-.05.2.15 0 0 0zm.15.05s.05 0 0 0zm.25 0c-.05.05-.05.1.05.15 0-.1.05-.15-.05-.15zm-.35.15s.05.05 0 0zm1.15 0c-.05 0-.1 0-.1.1.05 0 .1-.05.1-.1zm-1.2.05c-.05.05-.05.15-.1.25.15 0 .15-.2.1-.25zm.45.05c-.05.1-.15.15-.15.3.15 0 .3-.25.15-.3zm1.95.05c.05.05 0 .05 0 .1-.05 0 0-.05 0-.1zm-1.3.25c.05.15.05-.15 0 0zm2.2.1c.05.15.05-.15 0 0zm-.15.05c0-.15-.05.2 0 0zm-2.85 0c-.05.05-.15.25-.05.35-.05-.15.25-.25.05-.35zm.85.05s.05.05 0 0zm-1.25.1c-.05.1.15-.1 0 0zm1.25.05c.05 0 .05 0 .05-.05 0 0 0 .05-.05.05zm-1.3.05c0 .05-.1.05-.1.1.1.05.2-.1.1-.1zm.45.1c.15 0 0-.1 0 0zm0 0c-.05 0 0 .05 0 0zm-.3.05c.05.15.05-.15 0 0zm-.25.05c.05.15.05-.15 0 0zm.4-.05c.05.15 0 .2-.05.3.15 0 .1-.25.15-.3h-.1zm-.15.15c-.05-.1-.2 0-.25.1 0 0 .25 0 .25-.1zm1.05 0v0zm-1.05.15c.05.15.05-.15 0 0zm.1.1c.05 0 .05.05.1.05 0 0 0-.05.05 0v-.1c-.05 0-.1 0-.15.05zm-.2.05V79h.1v-.05h-.1zm-.6.15h.1c0-.05-.05-.1-.1-.1v.1zm2.1-.05c0-.05.05-.05 0 0zm-.35 0v.1c.05 0 .05-.2 0-.1zm-.85 0c-.05.2.15.05 0 0zm-.9.05c-.1 0 .05.15 0 0zm.45.1s.05.05 0 0zm.35.1c.05-.05.1 0 .1-.05-.05 0-.1 0-.1.05zm.1 0c-.1 0-.2.1-.1.15 0-.1.15 0 .1-.15zm.65.1c0 .05 0 .05-.05.1.1.05.2-.05.2-.1h-.15zm-1.2.05v.05h.05v-.05h-.05zm1.2.2h.1v-.05c-.1 0-.1 0-.1.05zm0 0c0 .05-.05.05 0 0zm2.15.2c-.1.1-.1.25-.1.35-.15.05-.5.25-.3.5 0-.05.05-.1.1-.1.05-.1-.1 0-.05-.15.1-.05.2-.15.4-.2-.05-.2 0-.25-.05-.4zm-2.95.15c-.05 0-.2.1-.1.15 0-.1.15 0 .1-.15zm-.6.3s.05 0 0 0zm3.55.05c-.1 0-.15 0-.15.1.05 0 .2 0 .15-.1zm-3.6.15c.05.1-.05.2.05.2 0-.05.1-.05.1-.15-.05 0-.05-.05-.15-.05zm3.5.05s.05.05 0 0zm.05.15c.1 0 0-.15 0 0zm-3.1 0c0 .1-.05.1-.05.15.15 0 .1-.1.05-.15zm-.45.55c-.05.1-.15.1-.1.25.1 0 .15-.2.1-.25zm.35.05v.1c.1.05.1-.15 0-.1zm-.05.3c.05-.15 0 .2 0 0zm3 .1c0-.15-.05.2 0 0zm-3.35 0c-.1-.05-.15.15-.05.15.05-.05.05-.1.05-.15zm1.15.15c-.05-.05-.15.1-.05.1 0-.05.05-.05.05-.1zm.1.1c-.1 0-.1.05-.2 0 0 .05 0 .1-.05.15.15 0 .2-.1.25-.15zm1.55.2c0-.05.05 0 0 0zm-2.8.15s.05.05 0 0zm.05.15c0-.05 0 0 0 0zm-.15.25s0 .05 0 0zm-.05.55c.05.15.05-.1 0 0zm3.15 0c.05.1-.1.15.05.2.05-.05.05-.2-.05-.2zm-.15.1c-.1-.1-.4.15-.15.15-.05-.15.15-.05.15-.15zm-3 .1c0-.05.05-.05 0 0zm0 0c-.05 0-.1.15 0 .15-.05-.1.05-.05 0-.15zm2.8.15v.05h.1v-.05h-.1zm-2.85.15s0 .05 0 0zm.05.05c0 .1-.15.05-.15.15h.15c-.05-.05.1-.15 0-.15zm2.8 0c-.05.1-.05.15 0 .2 0-.1.1-.2 0-.2zm-2.85.35c.1 0-.05-.15 0 0zm0 0c-.05 0 0 .05 0 0zm3.1.1c.05.15.05-.15 0 0zm-.05.15c-.05.05-.05.1-.05.2.1.05.15-.2.05-.2zm-2.15.6c0-.05.05 0 0 0zm-1.35.1c0 .15-.05.15-.1.2.15.05.15-.15.1-.2zm-.15.55c-.05 0 0 .05 0 0zm-.35.6c.15.05-.05-.15 0 0zm0 0c-.05 0-.05.05 0 .05v-.05zm0 .1c.1 0 .05-.05 0-.05v.05zm0 0c-.05.05-.05 0-.1 0-.05.1-.05.15.05.25.05-.1.05-.15.05-.25zm.2.35c0 .05.05 0 .1 0 0-.05-.1-.05-.1 0zm-.5.5c0 .1-.15.1-.1.25.1-.05.2-.15.1-.25zm3.85.1v.05h.05s.05-.05.05-.1c-.05 0-.05.05-.1.05zm0 .15v.05h.05v-.05h-.05zm-3.9.25v.1h.05v-.1h-.05zm1.7.1c.1-.05-.05-.15 0 0zm0 0c-.1 0 0 .2-.1.25.1 0 .1-.05.15-.05 0-.1-.1-.05-.05-.2zm2.1.1c-.05 0 0 .05 0 0zm-3.85.15c0-.05.05 0 0 0zm1.65 0s-.05 0 0 0zm-1.7.1s.05 0 .05-.05c0 0-.05 0-.05.05zm1.7 0c.05-.1 0 .25 0 0zm2.15.05s0 .05 0 0zm0 .05c0 .05 0 .1-.1.1.05.3-.05.5-.15.75.1-.05.25-.05.3-.15-.1-.2.1-.55-.05-.7zm-3.9.15c0 .05 0 .15.1.1 0-.05-.05-.05-.1-.1zm-.2 1.5c.05.1-.1.05-.05.15.1.1.1-.15.05-.15zm-.05.25c-.05 0 0-.05 0 0zm0 .05c.05 0 .05-.05 0-.05v.05zm0 0c0 .05-.05.15 0 .15.05-.05.05-.1 0-.15zm-.05.15c0 .05 0 .05-.05.05v.1c.1.05.1-.15.05-.15zm-.05.25c.1 0 0-.15 0 0zm0 0c0 .05-.05.05 0 0zm1.7.55s.05-.05.05 0h-.05zm-1.7.85c-.05.15.15-.05 0 0zm-.05 1.15s0 .05 0 0zm-.25 0c.05.05 0 .1 0 .15-.05-.05 0-.1 0-.15zm-.15 1.35c.05.15.05-.15 0 0zm2.15 2.75c0 .05-.05.05-.05 0h.05zm-.05.7c0-.15-.2-.1-.25-.05.1.05 0 .1.05.2.05 0 .1 0 .15.05 0-.1-.1-.3.05-.2z" fill="#fff"/>
</svg>